<svg width="32" height="42" viewBox="0 0 32 42" fill="none" xmlns="http://www.w3.org/2000/svg">
  <g filter="url(#filter0_d)">
    <path d="M16 38C16 38 28 28 28 16C28 9.37258 22.6274 4 16 4C9.37258 4 4 9.37258 4 16C4 28 16 38 16 38Z" fill="url(#paint0_linear)"/>
    <path d="M16 38L15.3113 38.5165L16 39.4348L16.6887 38.5165L16 38ZM28 16C28 28 16 38 16 38L16.6887 38.5165C17.0245 38.0687 28.85 28.2323 28.85 16H28ZM16 38C16 38 4 28 4 16H3.15C3.15 28.2323 14.9755 38.0687 15.3113 38.5165L16 38ZM16 4.85C22.1576 4.85 27.15 9.84244 27.15 16H28.85C28.85 8.89244 23.1076 3.15 16 3.15V4.85ZM4.85 16C4.85 9.84244 9.84244 4.85 16 4.85V3.15C8.89256 3.15 3.15 8.89244 3.15 16H4.85Z" fill="white" fill-opacity="0.2"/>
    <circle cx="16" cy="16" r="6" fill="white"/>
    <circle cx="16" cy="16" r="3" fill="#3b82f6"/>
  </g>
  <defs>
    <filter id="filter0_d" x="0" y="0" width="32" height="42" filterUnits="userSpaceOnUse" color-interpolation-filters="sRGB">
      <feFlood flood-opacity="0" result="BackgroundImageFix"/>
      <feColorMatrix in="SourceAlpha" type="matrix" values="0 0 0 0 0 0 0 0 0 0 0 0 0 0 0 0 0 0 127 0" result="hardAlpha"/>
      <feOffset dy="2"/>
      <feGaussianBlur stdDeviation="2"/>
      <feComposite in2="hardAlpha" operator="out"/>
      <feColorMatrix type="matrix" values="0 0 0 0 0.231373 0 0 0 0 0.513725 0 0 0 0 0.964706 0 0 0 0.3 0"/>
      <feBlend mode="normal" in2="BackgroundImageFix" result="effect1_dropShadow"/>
      <feBlend mode="normal" in="SourceGraphic" in2="effect1_dropShadow" result="shape"/>
    </filter>
    <linearGradient id="paint0_linear" x1="16" y1="4" x2="16" y2="38" gradientUnits="userSpaceOnUse">
      <stop stop-color="#60a5fa"/>
      <stop offset="1" stop-color="#3b82f6"/>
    </linearGradient>
  </defs>
</svg>
